<!--
  - This file is part of Devset CE.
  -
  - Copyright (C) 2025-2026 Dominik Martyniak
  -
  - Licensed under the Functional Source License, Version 1.1, Apache 2.0 Future License
  - (the "License"); you may not use this file except in compliance with the License.
  - You may obtain a copy of the License in the LICENSE file at the root of this repository.
  -->

<svg xmlns="http://www.w3.org/2000/svg" xmlns:xlink="http://www.w3.org/1999/xlink" width="311" zoomAndPan="magnify" viewBox="0 0 233.25 69.749997" height="93" preserveAspectRatio="xMidYMid meet" version="1.0"><defs><filter x="0%" y="0%" width="100%" height="100%" id="5aefca9600"><feColorMatrix values="0 0 0 0 1 0 0 0 0 1 0 0 0 0 1 0 0 0 1 0" color-interpolation-filters="sRGB"></feColorMatrix></filter><filter x="0%" y="0%" width="100%" height="100%" id="1f51887d7c"><feColorMatrix values="0 0 0 0 1 0 0 0 0 1 0 0 0 0 1 0.2126 0.7152 0.0722 0 0" color-interpolation-filters="sRGB"></feColorMatrix></filter><clipPath id="0958baef83"><path d="M 0.0429688 0 L 67.300781 0 L 67.300781 69.5 L 0.0429688 69.5 Z M 0.0429688 0 " clip-rule="nonzero"></path></clipPath><mask id="2ae6c4b724"><g filter="url(#5aefca9600)"><g filter="url(#1f51887d7c)" transform="matrix(0.222838, 0, 0, 0.222498, -25.464424, -0.00983933)"><image x="0" y="0" width="536" height="428" preserveAspectRatio="xMidYMid meet"></image></g></g></mask><clipPath id="27b73d5fd8"><path d="M 70 27.550781 L 230 27.550781 L 230 61 L 70 61 Z M 70 27.550781 " clip-rule="nonzero"></path></clipPath><mask id="d788bd4d14"><g filter="url(#5aefca9600)"><g filter="url(#1f51887d7c)" transform="matrix(0.298929, 0, 0, 0.298929, 69.693213, -67.109957)"><image x="0" y="0" width="536" height="428" preserveAspectRatio="xMidYMid meet"></image></g></g></mask></defs><g clip-path="url(#0958baef83)"><g mask="url(#2ae6c4b724)"><g transform="matrix(0.222838, 0, 0, 0.222498, -25.464424, -0.00983933)"><image x="0" y="0" width="536" height="428" preserveAspectRatio="xMidYMid meet"></image></g></g></g><g clip-path="url(#27b73d5fd8)"><g mask="url(#d788bd4d14)"><g transform="matrix(0.298929, 0, 0, 0.298929, 69.693213, -67.109957)"><image x="0" y="0" width="536" height="428" preserveAspectRatio="xMidYMid meet"></image></g></g></g></svg>