<!--
  - This file is part of Devset CE.
  -
  - Copyright (C) 2025-2026 Dominik Martyniak
  -
  - Licensed under the Functional Source License, Version 1.1, Apache 2.0 Future License
  - (the "License"); you may not use this file except in compliance with the License.
  - You may obtain a copy of the License in the LICENSE file at the root of this repository.
  -->

<svg xmlns="http://www.w3.org/2000/svg" width="1280" height="680" viewBox="0 0 1280 680" role="img" aria-label="Flow Builder Editor Screen">
  <rect width="1280" height="680" fill="#f3f7f4"/>
  <rect x="28" y="24" width="1224" height="632" rx="18" fill="#ffffff" stroke="#d4e1d8"/>
  <rect x="62" y="66" width="804" height="548" rx="14" fill="#f8fcfa" stroke="#d7e7df"/>
  <rect x="894" y="66" width="326" height="548" rx="14" fill="#f5f9f7" stroke="#d7e7df"/>
  <text x="88" y="98" font-family="Arial, sans-serif" font-size="22" fill="#1f3b2f">Canvas</text>
  <text x="920" y="98" font-family="Arial, sans-serif" font-size="22" fill="#1f3b2f">Panel ustawien</text>
  <rect x="120" y="184" width="170" height="72" rx="12" fill="#dbeafe" stroke="#7fb0f6"/>
  <rect x="354" y="184" width="170" height="72" rx="12" fill="#dcfce7" stroke="#7ec79a"/>
  <rect x="588" y="184" width="170" height="72" rx="12" fill="#fef3c7" stroke="#f1ce76"/>
  <text x="142" y="226" font-family="Arial, sans-serif" font-size="16" fill="#1f2937">Stage 1</text>
  <text x="376" y="226" font-family="Arial, sans-serif" font-size="16" fill="#1f2937">Stage 2</text>
  <text x="610" y="226" font-family="Arial, sans-serif" font-size="16" fill="#1f2937">Stage 3</text>
  <path d="M290 220L354 220" stroke="#2b8a66" stroke-width="4" marker-end="url(#a)"/>
  <path d="M524 220L588 220" stroke="#2b8a66" stroke-width="4" marker-end="url(#a)"/>
  <rect x="920" y="128" width="272" height="78" rx="10" fill="#ffffff" stroke="#cdded4"/>
  <text x="940" y="158" font-family="Arial, sans-serif" font-size="14" fill="#1f2937">Workflow ID</text>
  <text x="940" y="182" font-family="Arial, sans-serif" font-size="13" fill="#4b5563">customer-onboarding-flow</text>
  <rect x="920" y="222" width="272" height="62" rx="10" fill="#ffffff" stroke="#cdded4"/>
  <text x="940" y="258" font-family="Arial, sans-serif" font-size="14" fill="#1f2937">Workflow State</text>
  <rect x="920" y="300" width="272" height="62" rx="10" fill="#ffffff" stroke="#cdded4"/>
  <text x="940" y="336" font-family="Arial, sans-serif" font-size="14" fill="#1f2937">Show DSL Payload</text>
  <rect x="920" y="378" width="272" height="62" rx="10" fill="#ffffff" stroke="#cdded4"/>
  <text x="940" y="414" font-family="Arial, sans-serif" font-size="14" fill="#1f2937">Open in Playground</text>
  <rect x="1020" y="542" width="172" height="46" rx="10" fill="#216e52"/>
  <text x="1088" y="571" text-anchor="middle" font-family="Arial, sans-serif" font-size="16" fill="#ffffff">Save</text>
  <defs>
    <marker id="a" markerWidth="12" markerHeight="12" refX="10" refY="6" orient="auto">
      <path d="M0 0L12 6L0 12z" fill="#2b8a66"/>
    </marker>
  </defs>
</svg>
